<?xml version="1.0" encoding="UTF-8" standalone="no"?>
<svg
   xmlns:dc="http://purl.org/dc/elements/1.1/"
   xmlns:cc="http://creativecommons.org/ns#"
   xmlns:rdf="http://www.w3.org/1999/02/22-rdf-syntax-ns#"
   xmlns:svg="http://www.w3.org/2000/svg"
   xmlns="http://www.w3.org/2000/svg"
   xmlns:sodipodi="http://sodipodi.sourceforge.net/DTD/sodipodi-0.dtd"
   xmlns:inkscape="http://www.inkscape.org/namespaces/inkscape"
   sodipodi:docname="nflow_logo_dark.svg"
   inkscape:version="1.0.1 (3bc2e813f5, 2020-09-07)"
   version="1.1"
   id="svg3954"
   height="79.07"
   width="153.24001">
  <defs
     id="defs3956">
    <marker
       inkscape:stockid="TriangleOutM"
       orient="auto"
       refY="0"
       refX="0"
       id="TriangleOutM"
       style="overflow:visible">
      <path
         inkscape:connector-curvature="0"
         id="path4122"
         d="m 5.77,0 -8.65,5 0,-10 8.65,5 z"
         style="fill-rule:evenodd;stroke:#000000;stroke-width:1pt;marker-start:none"
         transform="scale(0.4,0.4)" />
    </marker>
    <marker
       inkscape:stockid="TriangleOutM"
       orient="auto"
       refY="0"
       refX="0"
       id="marker3938"
       style="overflow:visible">
      <path
         inkscape:connector-curvature="0"
         id="path3940"
         d="m 5.77,0 -8.65,5 0,-10 8.65,5 z"
         style="fill-rule:evenodd;stroke:#000000;stroke-width:1pt;marker-start:none"
         transform="scale(0.4,0.4)" />
    </marker>
    <marker
       inkscape:stockid="TriangleOutM7400"
       orient="auto"
       refY="0"
       refX="0"
       style="overflow:visible"
       id="TriangleOutM7400">
      <path
         inkscape:connector-curvature="0"
         id="path929"
         d="m 5.77,0 -8.65,5 0,-10 8.65,5 z"
         style="fill-rule:evenodd;stroke:#000000;stroke-width:1pt;marker-start:none;fill:#afafaf"
         transform="scale(0.4,0.4)" />
    </marker>
    <marker
       inkscape:stockid="TriangleOutM3534"
       orient="auto"
       refY="0"
       refX="0"
       style="overflow:visible"
       id="TriangleOutM3534">
      <path
         inkscape:connector-curvature="0"
         id="path932"
         d="m 5.77,0 -8.65,5 0,-10 8.65,5 z"
         style="fill-rule:evenodd;stroke:#000000;stroke-width:1pt;marker-start:none;fill:#afafaf"
         transform="scale(0.4,0.4)" />
    </marker>
    <marker
       inkscape:stockid="TriangleOutM3534193"
       orient="auto"
       refY="0"
       refX="0"
       style="overflow:visible"
       id="TriangleOutM3534193">
      <path
         inkscape:connector-curvature="0"
         id="path999"
         d="m 5.77,0 -8.65,5 0,-10 8.65,5 z"
         style="fill-rule:evenodd;stroke:#afafaf;stroke-width:1pt;marker-start:none;fill:#afafaf"
         transform="scale(0.4,0.4)" />
    </marker>
    <marker
       inkscape:stockid="TriangleOutM35341936670"
       orient="auto"
       refY="0"
       refX="0"
       style="overflow:visible"
       id="TriangleOutM35341936670">
      <path
         inkscape:connector-curvature="0"
         id="path1073"
         d="m 5.77,0 -8.65,5 0,-10 8.65,5 z"
         style="fill-rule:evenodd;stroke:#afafaf;stroke-width:1pt;marker-start:none;fill:#afafaf"
         transform="scale(0.4,0.4)" />
    </marker>
    <marker
       inkscape:stockid="TriangleOutM7400916"
       orient="auto"
       refY="0"
       refX="0"
       style="overflow:visible"
       id="TriangleOutM7400916">
      <path
         inkscape:connector-curvature="0"
         id="path1157"
         d="m 5.77,0 -8.65,5 0,-10 8.65,5 z"
         style="fill-rule:evenodd;stroke:#afafaf;stroke-width:1pt;marker-start:none;fill:#afafaf"
         transform="scale(0.4,0.4)" />
    </marker>
    <marker
       inkscape:stockid="TriangleOutM74009168673"
       orient="auto"
       refY="0"
       refX="0"
       style="overflow:visible"
       id="TriangleOutM74009168673">
      <path
         inkscape:connector-curvature="0"
         id="path1264"
         d="m 5.77,0 -8.65,5 0,-10 8.65,5 z"
         style="fill-rule:evenodd;stroke:#afafaf;stroke-width:1pt;marker-start:none;fill:#afafaf"
         transform="scale(0.4,0.4)" />
    </marker>
    <marker
       inkscape:stockid="TriangleOutM353419366708546"
       orient="auto"
       refY="0"
       refX="0"
       style="overflow:visible"
       id="TriangleOutM353419366708546">
      <path
         inkscape:connector-curvature="0"
         id="path1267"
         d="m 5.77,0 -8.65,5 0,-10 8.65,5 z"
         style="fill-rule:evenodd;stroke:#afafaf;stroke-width:1pt;marker-start:none;fill:#afafaf"
         transform="scale(0.4,0.4)" />
    </marker>
    <marker
       inkscape:stockid="TriangleOutM74009168673"
       orient="auto"
       refY="0"
       refX="0"
       style="overflow:visible"
       id="TriangleOutM74009168673-3">
      <path
         inkscape:connector-curvature="0"
         id="path1264-6"
         d="M 5.77,0 -2.88,5 V -5 Z"
         style="fill:#afafaf;fill-rule:evenodd;stroke:#afafaf;stroke-width:1pt;marker-start:none"
         transform="scale(0.4)" />
    </marker>
    <marker
       inkscape:stockid="TriangleOutM353419366708546"
       orient="auto"
       refY="0"
       refX="0"
       style="overflow:visible"
       id="TriangleOutM353419366708546-7">
      <path
         inkscape:connector-curvature="0"
         id="path1267-5"
         d="M 5.77,0 -2.88,5 V -5 Z"
         style="fill:#afafaf;fill-rule:evenodd;stroke:#afafaf;stroke-width:1pt;marker-start:none"
         transform="scale(0.4)" />
    </marker>
    <marker
       inkscape:stockid="TriangleOutM740091686736541"
       orient="auto"
       refY="0"
       refX="0"
       style="overflow:visible"
       id="TriangleOutM740091686736541">
      <path
         inkscape:connector-curvature="0"
         id="path1432"
         d="M 5.77,0 -2.88,5 V -5 Z"
         style="fill:#afafaf;fill-rule:evenodd;stroke:#afafaf;stroke-width:1pt;marker-start:none"
         transform="scale(0.4)" />
    </marker>
    <marker
       inkscape:stockid="TriangleOutM3534193667085467431"
       orient="auto"
       refY="0"
       refX="0"
       style="overflow:visible"
       id="TriangleOutM3534193667085467431">
      <path
         inkscape:connector-curvature="0"
         id="path1429"
         d="M 5.77,0 -2.88,5 V -5 Z"
         style="fill:#afafaf;fill-rule:evenodd;stroke:#afafaf;stroke-width:1pt;marker-start:none"
         transform="scale(0.4)" />
    </marker>
    <marker
       inkscape:stockid="TriangleOutM3534193667085469181"
       orient="auto"
       refY="0"
       refX="0"
       style="overflow:visible"
       id="TriangleOutM3534193667085469181">
      <path
         inkscape:connector-curvature="0"
         id="path1865"
         d="m 5.77,0 -8.65,5 0,-10 8.65,5 z"
         style="fill-rule:evenodd;stroke:#afafaf;stroke-width:1pt;marker-start:none;fill:#afafaf"
         transform="scale(0.4,0.4)" />
    </marker>
    <marker
       inkscape:stockid="TriangleOutM740091686731730"
       orient="auto"
       refY="0"
       refX="0"
       style="overflow:visible"
       id="TriangleOutM740091686731730">
      <path
         inkscape:connector-curvature="0"
         id="path1868"
         d="m 5.77,0 -8.65,5 0,-10 8.65,5 z"
         style="fill-rule:evenodd;stroke:#afafaf;stroke-width:1pt;marker-start:none;fill:#afafaf"
         transform="scale(0.4,0.4)" />
    </marker>
    <marker
       inkscape:stockid="TriangleOutM35341936670854691818774"
       orient="auto"
       refY="0"
       refX="0"
       style="overflow:visible"
       id="TriangleOutM35341936670854691818774">
      <path
         inkscape:connector-curvature="0"
         id="path2056"
         d="m 5.77,0 -8.65,5 0,-10 8.65,5 z"
         style="fill-rule:evenodd;stroke:#afafaf;stroke-width:1pt;marker-start:none;fill:#afafaf"
         transform="scale(0.4,0.4)" />
    </marker>
    <marker
       inkscape:stockid="TriangleOutM7400916867317303932"
       orient="auto"
       refY="0"
       refX="0"
       style="overflow:visible"
       id="TriangleOutM7400916867317303932">
      <path
         inkscape:connector-curvature="0"
         id="path2059"
         d="m 5.77,0 -8.65,5 0,-10 8.65,5 z"
         style="fill-rule:evenodd;stroke:#afafaf;stroke-width:1pt;marker-start:none;fill:#afafaf"
         transform="scale(0.4,0.4)" />
    </marker>
  </defs>
  <sodipodi:namedview
     id="base"
     pagecolor="#000000"
     bordercolor="#666666"
     borderopacity="1.0"
     inkscape:pageopacity="0"
     inkscape:pageshadow="2"
     inkscape:zoom="5.6"
     inkscape:cx="87.38383"
     inkscape:cy="41.505143"
     inkscape:document-units="px"
     inkscape:current-layer="g1409"
     showgrid="false"
     fit-margin-top="2.7755576e-17"
     fit-margin-left="0"
     fit-margin-right="0"
     fit-margin-bottom="1.2"
     inkscape:window-width="1920"
     inkscape:window-height="2103"
     inkscape:window-x="5760"
     inkscape:window-y="28"
     inkscape:window-maximized="1"
     showguides="true"
     inkscape:guide-bbox="true"
     inkscape:document-rotation="0" />
  <metadata
     id="metadata3959">
    <rdf:RDF>
      <cc:Work
         rdf:about="">
        <dc:format>image/svg+xml</dc:format>
        <dc:type
           rdf:resource="http://purl.org/dc/dcmitype/StillImage" />
        <dc:title></dc:title>
      </cc:Work>
    </rdf:RDF>
  </metadata>
  <g
     inkscape:label="Layer 1"
     inkscape:groupmode="layer"
     id="layer1"
     transform="translate(-178.38743,-192.68872)">
    <g
       transform="translate(-1334.8767,-2955.2251)"
       id="g3913">
      <g
         id="g3891"
         transform="translate(911.09294,2052.1109)">
        <g
           id="g3895"
           transform="translate(194.54234,447.72679)">
          <path
             style="fill:none;stroke:#afafaf;stroke-width:3;stroke-linecap:butt;stroke-linejoin:miter;stroke-miterlimit:4;stroke-opacity:1;stroke-dasharray:none;marker-start:none;marker-mid:none"
             d="m 557.79337,656.4167 -67.15484,0 0,17.698"
             id="path3897"
             inkscape:connector-curvature="0"
             sodipodi:nodetypes="ccc" />
          <g
             style="font-size:48px;font-style:normal;font-variant:normal;font-weight:bold;font-stretch:normal;line-height:125%;letter-spacing:-0.30999994px;word-spacing:0px;fill:#afafaf;fill-opacity:1;stroke:none;font-family:Sans;-inkscape-font-specification:Sans Bold"
             id="text3899">
            <path
               d="m 434.52136,685.23499 0,15.98437 -8.4375,0 0,-2.60156 0,-9.63281 c -2e-5,-2.26562 -0.0547,-3.82811 -0.16406,-4.6875 -0.0938,-0.85936 -0.26565,-1.49217 -0.51563,-1.89844 -0.32814,-0.54686 -0.77345,-0.96873 -1.33593,-1.26563 -0.56252,-0.31248 -1.20315,-0.46873 -1.92188,-0.46875 -1.75001,2e-5 -3.12501,0.67971 -4.125,2.03907 -1.00001,1.34376 -1.50001,3.21095 -1.5,5.60156 l 0,12.91406 -8.39062,0 0,-26.25 8.39062,0 0,3.84375 c 1.26561,-1.53123 2.60936,-2.65622 4.03125,-3.375 1.42186,-0.73435 2.99217,-1.10154 4.71094,-1.10156 3.03123,2e-5 5.3281,0.92971 6.89062,2.78906 1.5781,1.8594 2.36716,4.56252 2.36719,8.10938"
               style="font-size:48px;-inkscape-font-specification:Sans Bold;fill:#afafaf;fill-opacity:1"
               id="path10062" />
            <path
               d="m 459.31292,664.75061 0,5.50781 -4.64062,0 c -1.18752,3e-5 -2.01564,0.21878 -2.48438,0.65625 -0.46876,0.42191 -0.70314,1.16409 -0.70312,2.22657 l 0,1.82812 7.17187,0 0,6 -7.17187,0 0,20.25 -8.39063,0 0,-20.25 -4.17187,0 0,-6 4.17187,0 0,-1.82812 c 0,-2.85935 0.79687,-4.96872 2.39063,-6.32813 1.59374,-1.37496 4.06249,-2.06246 7.40625,-2.0625 l 6.42187,0"
               style="-inkscape-font-specification:Sans Bold;fill:#afafaf;fill-opacity:1"
               id="path10064" />
            <path
               d="m 462.63574,664.75061 8.39062,0 0,36.46875 -8.39062,0 0,-36.46875"
               style="-inkscape-font-specification:Sans Bold;fill:#afafaf;fill-opacity:1"
               id="path10066" />
            <path
               d="m 509.23698,674.96936 8.15625,0 4.40625,18.09375 4.42969,-18.09375 7.00781,0 4.40625,17.90625 4.42969,-17.90625 8.15625,0 -6.91406,26.25 -9.16406,0 -4.42969,-18.04687 -4.40625,18.04687 -9.16406,0 -6.91407,-26.25"
               style="-inkscape-font-specification:Sans Bold;fill:#afafaf;fill-opacity:1"
               id="path10068" />
          </g>
          <rect
             style="fill:none;fill-opacity:1;stroke:#afafaf;stroke-width:5;stroke-linecap:round;stroke-linejoin:miter;stroke-miterlimit:4;stroke-dasharray:none;stroke-opacity:1"
             id="rect3905"
             width="21.07143"
             height="21.07143"
             x="822.10596"
             y="127.26561"
             transform="rotate(45)" />
          <path
             sodipodi:nodetypes="ccc"
             inkscape:connector-curvature="0"
             id="path3907"
             d="m 491.16392,700.6223 0,18.1625 14.62945,0"
             style="fill:none;stroke:#afafaf;stroke-width:3;stroke-linecap:butt;stroke-linejoin:miter;stroke-miterlimit:4;stroke-opacity:1;stroke-dasharray:none;marker-start:none;marker-mid:none" />
          <path
             sodipodi:nodetypes="cc"
             inkscape:connector-curvature="0"
             id="path3909"
             d="m 504.33723,718.79613 29.87188,0"
             style="fill:#afafaf;stroke:#afafaf;stroke-width:3;stroke-linecap:butt;stroke-linejoin:miter;stroke-miterlimit:4;stroke-opacity:1;stroke-dasharray:none;marker-start:none;marker-mid:none;marker-end:url(#TriangleOutM74009168673);fill-opacity:1" />
          <path
             style="fill:#afafaf;stroke:#afafaf;stroke-width:3;stroke-linecap:butt;stroke-linejoin:miter;stroke-miterlimit:4;stroke-opacity:1;stroke-dasharray:none;marker-start:none;marker-mid:none;marker-end:url(#TriangleOutM353419366708546);fill-opacity:1"
             d="m 528.38189,656.42618 24.31108,0"
             id="path3911"
             inkscape:connector-curvature="0"
             sodipodi:nodetypes="cc" />
        </g>
        <g
           id="g1409"
           transform="translate(194.54234,447.72679)">
          <path
             style="fill:none;stroke:#afafaf;stroke-width:3;stroke-linecap:butt;stroke-linejoin:miter;stroke-miterlimit:4;stroke-opacity:1;stroke-dasharray:none;marker-start:none;marker-mid:none"
             d="m 557.79337,656.4167 -67.15484,0 0,17.698"
             id="path1389"
             inkscape:connector-curvature="0"
             sodipodi:nodetypes="ccc" />
          <g
             style="font-size:48px;font-style:normal;font-variant:normal;font-weight:bold;font-stretch:normal;line-height:125%;letter-spacing:-0.30999994px;word-spacing:0px;fill:#afafaf;fill-opacity:1;stroke:none;font-family:Sans;-inkscape-font-specification:Sans Bold"
             id="g1399">
            <path
               d="m 434.52136,685.23499 0,15.98437 -8.4375,0 0,-2.60156 0,-9.63281 c -2e-5,-2.26562 -0.0547,-3.82811 -0.16406,-4.6875 -0.0938,-0.85936 -0.26565,-1.49217 -0.51563,-1.89844 -0.32814,-0.54686 -0.77345,-0.96873 -1.33593,-1.26563 -0.56252,-0.31248 -1.20315,-0.46873 -1.92188,-0.46875 -1.75001,2e-5 -3.12501,0.67971 -4.125,2.03907 -1.00001,1.34376 -1.50001,3.21095 -1.5,5.60156 l 0,12.91406 -8.39062,0 0,-26.25 8.39062,0 0,3.84375 c 1.26561,-1.53123 2.60936,-2.65622 4.03125,-3.375 1.42186,-0.73435 2.99217,-1.10154 4.71094,-1.10156 3.03123,2e-5 5.3281,0.92971 6.89062,2.78906 1.5781,1.8594 2.36716,4.56252 2.36719,8.10938"
               style="font-size:48px;-inkscape-font-specification:Sans Bold;fill:#afafaf;fill-opacity:1"
               id="path1391" />
            <path
               d="m 459.31292,664.75061 0,5.50781 -4.64062,0 c -1.18752,3e-5 -2.01564,0.21878 -2.48438,0.65625 -0.46876,0.42191 -0.70314,1.16409 -0.70312,2.22657 l 0,1.82812 7.17187,0 0,6 -7.17187,0 0,20.25 -8.39063,0 0,-20.25 -4.17187,0 0,-6 4.17187,0 0,-1.82812 c 0,-2.85935 0.79687,-4.96872 2.39063,-6.32813 1.59374,-1.37496 4.06249,-2.06246 7.40625,-2.0625 l 6.42187,0"
               style="-inkscape-font-specification:Sans Bold;fill:#afafaf;fill-opacity:1"
               id="path1393" />
            <path
               d="m 462.63574,664.75061 8.39062,0 0,36.46875 -8.39062,0 0,-36.46875"
               style="-inkscape-font-specification:Sans Bold;fill:#afafaf;fill-opacity:1"
               id="path1395" />
            <path
               d="m 509.23698,674.96936 8.15625,0 4.40625,18.09375 4.42969,-18.09375 7.00781,0 4.40625,17.90625 4.42969,-17.90625 8.15625,0 -6.91406,26.25 -9.16406,0 -4.42969,-18.04687 -4.40625,18.04687 -9.16406,0 -6.91407,-26.25"
               style="-inkscape-font-specification:Sans Bold;fill:#afafaf;fill-opacity:1"
               id="path1397" />
          </g>
          <rect
             style="fill:none;fill-opacity:1;stroke:#afafaf;stroke-width:5;stroke-linecap:round;stroke-linejoin:miter;stroke-miterlimit:4;stroke-dasharray:none;stroke-opacity:1"
             id="rect1401"
             width="21.07143"
             height="21.07143"
             x="822.10596"
             y="127.26561"
             transform="rotate(45)" />
          <path
             sodipodi:nodetypes="ccc"
             inkscape:connector-curvature="0"
             id="path1403"
             d="m 491.16392,700.6223 0,18.1625 14.62945,0"
             style="fill:none;stroke:#afafaf;stroke-width:3;stroke-linecap:butt;stroke-linejoin:miter;stroke-miterlimit:4;stroke-opacity:1;stroke-dasharray:none;marker-start:none;marker-mid:none" />
          <path
             sodipodi:nodetypes="cc"
             inkscape:connector-curvature="0"
             id="path1405"
             d="m 504.33723,718.79613 29.87188,0"
             style="fill:#afafaf;stroke:#afafaf;stroke-width:3;stroke-linecap:butt;stroke-linejoin:miter;stroke-miterlimit:4;stroke-opacity:1;stroke-dasharray:none;marker-start:none;marker-mid:none;marker-end:url(#TriangleOutM7400916867317303932);fill-opacity:1" />
          <path
             style="fill:#afafaf;stroke:#afafaf;stroke-width:3;stroke-linecap:butt;stroke-linejoin:miter;stroke-miterlimit:4;stroke-opacity:1;stroke-dasharray:none;marker-start:none;marker-mid:none;marker-end:url(#TriangleOutM35341936670854691818774);fill-opacity:1"
             d="m 528.38189,656.42618 24.31108,0"
             id="path1407"
             inkscape:connector-curvature="0"
             sodipodi:nodetypes="cc" />
        </g>
      </g>
    </g>
  </g>
</svg>
